<svg xmlns="http://www.w3.org/2000/svg" width="11" height="13" viewBox="0 0 11 13" fill="none">
<path d="M0 1.625C0 0.727538 0.783502 0 1.75 0H8.75C9.7165 0 10.5 0.727537 10.5 1.625V12.5938C10.5 12.7436 10.4112 12.8812 10.2689 12.9519C10.1267 13.0226 9.95407 13.0149 9.81982 12.9318L5.25 10.6445L0.680181 12.9318C0.545932 13.0149 0.373319 13.0226 0.231062 12.9519C0.0888058 12.8812 0 12.7436 0 12.5938V1.625ZM1.75 0.8125C1.26675 0.8125 0.875 1.17627 0.875 1.625V11.8347L5.00732 9.81823C5.15427 9.72726 5.34573 9.72726 5.49268 9.81823L9.625 11.8347V1.625C9.625 1.17627 9.23325 0.8125 8.75 0.8125H1.75Z" fill="#230061"/>
</svg>